# xmcd CD database file
#
# Track frame offsets:
#	150
#	13460
#	31917
#	49250
#	61585
#	85475
#	106625
#	130425
#	146792
#	159740
#	184697
#
# Disc length: 2589 seconds
#
# Revision: 3
# Processed by: cddbd v1.5.1PL0 Copyright (c) Steve Scherf et al.
# Submitted via: CDex 1.51
#
DISCID=960a1b0b
DTITLE=Gentle Readers - Hi Honey
DYEAR=2000
DGENRE=Blues
TTITLE0=lunchhour
TTITLE1=center of the universe
TTITLE2=nothing you can do
TTITLE3=difficult
TTITLE4=fiction
TTITLE5=california
TTITLE6=last day at the office
TTITLE7=sweetest taboo
TTITLE8=seperate
TTITLE9=turn up the sound
TTITLE10=caifornia pt.2
EXTD=YEAR: 2000
EXTT0=
EXTT1=
EXTT2=
EXTT3=
EXTT4=
EXTT5=
EXTT6=
EXTT7=
EXTT8=
EXTT9=
EXTT10=
PLAYORDER=
